<?xml version="1.0" standalone="no"?>
<!DOCTYPE svg PUBLIC "-//W3C//DTD SVG 20010904//EN"
 "http://www.w3.org/TR/2001/REC-SVG-20010904/DTD/svg10.dtd">
<svg version="1.0" xmlns="http://www.w3.org/2000/svg"
 width="720.000000pt" height="720.000000pt" viewBox="0 0 720.000000 720.000000"
 preserveAspectRatio="xMidYMid meet">
<metadata>
Created by potrace 1.14, written by Peter Selinger 2001-2017
</metadata>
<g transform="translate(0.000000,720.000000) scale(0.100000,-0.100000)"
fill="#000000" stroke="none">
<path d="M3141 5776 c-7 -8 -20 -13 -29 -11 -9 1 -20 -3 -24 -9 -6 -8 -8 -7
-8 1 0 7 -7 10 -17 6 -11 -5 -14 -3 -8 6 4 8 -2 7 -17 -3 -14 -9 -28 -13 -32
-9 -10 10 -46 11 -46 1 0 -5 -6 -6 -12 -1 -17 10 -38 10 -65 1 -13 -4 -23 -4
-23 1 0 6 -34 7 -50 1 -3 -1 -9 -1 -15 0 -28 7 -87 5 -92 -2 -2 -5 -11 -4 -19
3 -11 9 -14 9 -14 0 0 -7 -4 -9 -10 -6 -5 3 -10 1 -10 -4 0 -6 -5 -11 -11 -11
-5 0 -7 5 -4 10 3 6 1 10 -4 10 -6 0 -11 -5 -11 -11 0 -8 -5 -8 -15 1 -12 10
-16 9 -21 -5 -5 -13 -9 -14 -15 -3 -6 9 -9 9 -9 1 0 -8 -9 -9 -30 -3 -19 5
-28 5 -25 -1 8 -12 -2 -11 -27 2 -15 8 -19 8 -13 -1 4 -7 1 -11 -6 -9 -30 4
-60 -1 -55 -9 3 -5 -1 -9 -9 -9 -8 0 -11 5 -8 11 5 8 3 8 -8 0 -8 -6 -29 -10
-46 -9 -24 0 -33 -4 -33 -15 0 -12 -2 -12 -9 -1 -6 9 -11 10 -15 2 -4 -6 -11
-9 -16 -6 -5 3 -20 0 -32 -7 -13 -7 -27 -14 -33 -14 -31 -5 -54 -18 -48 -27 3
-6 1 -7 -6 -3 -15 10 -105 -80 -96 -95 4 -5 1 -16 -5 -24 -10 -12 -10 -15 1
-15 11 0 11 -2 -1 -10 -9 -6 -14 -27 -15 -64 -1 -31 -4 -59 -8 -62 -12 -12 -8
-26 6 -18 9 6 9 4 1 -7 -15 -19 -26 -51 -16 -45 5 3 9 -1 9 -9 0 -8 -4 -12 -8
-9 -4 2 -6 -8 -5 -23 2 -16 -2 -31 -8 -35 -8 -6 -8 -8 1 -8 8 0 9 -9 3 -30 -5
-18 -5 -32 1 -35 5 -4 5 -14 -1 -26 -6 -10 -7 -19 -2 -19 4 0 8 -9 8 -20 0
-11 -4 -20 -9 -20 -5 0 -5 -6 0 -12 13 -16 13 -48 0 -48 -5 0 -5 -6 2 -13 8
-10 7 -17 -2 -26 -9 -9 -9 -14 3 -21 8 -5 10 -10 4 -10 -11 0 -11 -51 1 -69 3
-6 2 -11 -2 -11 -5 0 -9 -9 -9 -20 0 -11 4 -20 9 -20 5 0 4 -7 -3 -15 -10 -12
-10 -15 1 -15 9 0 10 -3 4 -8 -15 -11 -17 -32 -2 -32 7 0 8 -3 2 -8 -5 -4 -10
-18 -10 -32 0 -14 5 -28 10 -32 6 -5 5 -8 -4 -8 -11 0 -11 -3 0 -17 8 -9 9
-14 3 -10 -7 4 -11 -2 -11 -18 0 -16 4 -22 11 -18 7 5 7 2 -1 -8 -7 -9 -8 -20
-3 -28 10 -17 2 -43 -11 -35 -5 3 -6 -2 -3 -10 3 -9 11 -13 18 -9 7 4 7 2 -1
-8 -14 -17 -15 -87 -2 -95 5 -2 6 -11 3 -19 -4 -8 -10 -12 -15 -9 -5 3 -6 -2
-3 -10 3 -9 11 -13 18 -9 6 3 6 1 -1 -8 -15 -15 -17 -33 -4 -25 10 7 9 -20 -2
-30 -4 -4 -1 -14 6 -22 10 -13 9 -15 -7 -9 -14 6 -16 4 -9 -5 5 -7 9 -20 8
-28 -1 -8 3 -24 8 -35 10 -18 9 -19 -8 -5 -17 14 -17 14 -7 -6 8 -16 8 -24 -1
-34 -8 -9 -8 -11 -1 -7 19 11 25 -22 6 -32 -14 -8 -14 -10 -2 -11 9 0 15 -9
15 -24 0 -13 -3 -22 -7 -20 -4 3 -6 -5 -5 -16 1 -11 6 -20 12 -20 6 0 7 -3 0
-8 -14 -10 -17 -32 -4 -32 8 0 8 -4 0 -14 -9 -11 -9 -15 1 -19 10 -4 10 -6 -1
-6 -11 -1 -11 -4 -1 -16 10 -12 10 -15 0 -15 -10 0 -10 -3 0 -15 10 -12 10
-15 -1 -15 -9 0 -10 -3 -2 -11 7 -7 8 -21 3 -40 -5 -16 -5 -29 -1 -29 9 0 8
-31 -3 -48 -4 -6 -3 -12 1 -12 5 0 9 -9 9 -20 0 -11 -4 -20 -9 -20 -4 0 -5 -5
-1 -12 10 -16 12 -58 2 -64 -4 -3 -3 -16 2 -29 6 -17 6 -25 -1 -25 -6 0 -7 -6
-3 -12 12 -19 12 -48 0 -48 -7 0 -7 -3 -1 -8 14 -10 16 -84 2 -75 -6 4 -7 1
-1 -8 5 -8 9 -22 10 -31 1 -10 2 -19 4 -20 7 -10 7 -37 -1 -32 -5 3 -9 0 -9
-5 0 -6 5 -11 11 -11 6 0 7 -5 2 -12 -11 -19 -13 -39 -2 -32 5 3 9 0 9 -5 0
-6 -5 -11 -12 -11 -6 0 -3 -7 8 -15 18 -13 18 -14 -6 -9 -21 5 -22 4 -7 -6 19
-12 24 -35 5 -25 -7 4 -4 -1 6 -9 19 -15 11 -22 -19 -16 -5 1 -2 -7 7 -17 9
-10 17 -21 17 -25 1 -5 1 -9 2 -10 6 -17 2 -105 -6 -110 -6 -5 -4 -12 5 -18
13 -9 13 -10 0 -10 -13 0 -13 -2 -1 -9 10 -7 12 -14 5 -23 -11 -16 -11 -38 0
-56 4 -7 2 -19 -4 -27 -7 -8 -8 -15 -3 -15 5 0 9 -54 8 -121 0 -66 4 -123 8
-126 4 -3 3 -11 -4 -19 -9 -11 -8 -15 4 -20 12 -4 14 -11 7 -29 -6 -16 -6 -27
1 -31 8 -4 7 -9 -2 -15 -12 -7 -12 -9 0 -9 10 0 11 -3 2 -14 -9 -11 -9 -16 0
-21 8 -6 7 -10 -2 -16 -12 -7 -12 -9 0 -9 11 0 11 -3 0 -17 -8 -9 -9 -14 -3
-10 7 4 11 -19 11 -68 1 -41 4 -79 8 -85 3 -5 1 -10 -6 -10 -7 0 -5 -8 7 -22
10 -12 14 -18 8 -15 -7 4 -14 -3 -16 -18 -4 -18 -2 -23 6 -16 8 7 12 4 13 -10
1 -10 -2 -19 -6 -19 -4 0 -8 -7 -8 -15 0 -8 4 -12 9 -9 4 3 8 -2 8 -11 0 -9
-4 -14 -9 -11 -10 7 -8 -9 4 -37 4 -9 5 -31 3 -47 -3 -17 0 -30 6 -30 6 0 4
-5 -4 -10 -13 -9 -13 -10 0 -10 13 0 13 -1 0 -10 -11 -7 -11 -10 -2 -10 10 0
10 -5 1 -21 -6 -12 -7 -19 -1 -15 5 3 12 -1 15 -8 3 -8 1 -17 -6 -19 -9 -3 -9
-8 1 -18 14 -15 16 -33 3 -24 -5 3 -13 0 -17 -6 -4 -8 -3 -9 5 -5 14 9 19 -5
24 -66 2 -26 -1 -52 -6 -57 -7 -7 -5 -12 7 -17 14 -5 14 -9 4 -22 -9 -11 -9
-13 -1 -9 6 4 14 3 18 -3 3 -5 0 -10 -7 -10 -8 0 -9 -3 -3 -8 6 -4 10 -19 10
-35 -1 -15 2 -27 6 -27 4 0 10 -8 14 -19 8 -27 41 -62 50 -53 5 4 5 -1 2 -10
-4 -12 -2 -15 9 -11 8 3 14 -1 14 -10 0 -9 8 -13 25 -12 14 2 27 -1 31 -6 3
-5 14 -14 26 -20 16 -9 19 -8 12 3 -6 11 -5 11 9 -1 11 -9 17 -10 17 -2 0 7 9
6 25 -5 14 -9 34 -14 44 -11 10 2 25 1 32 -4 7 -4 21 -3 30 2 10 5 20 6 23 1
2 -4 17 -7 33 -6 15 1 36 -3 47 -8 13 -7 16 -7 12 1 -11 18 5 13 21 -6 8 -10
12 -12 8 -5 -4 8 3 12 24 12 16 0 32 -6 34 -12 4 -10 6 -10 6 0 1 6 6 12 12
12 5 0 7 -6 3 -13 -5 -8 -2 -8 9 2 9 7 17 9 17 3 0 -5 15 -8 33 -5 39 5 64 5
97 0 14 -3 31 0 38 6 6 5 12 5 12 0 0 -10 610 -11 627 0 6 4 14 3 17 -1 6 -10
46 -10 63 1 6 4 14 3 18 -3 4 -7 12 -7 25 0 13 7 21 7 25 0 4 -7 12 -7 25 0
13 7 21 7 26 -1 4 -8 9 -7 16 2 8 11 10 12 15 1 4 -10 9 -9 24 4 19 17 20 17
13 -2 -7 -18 -7 -18 13 -1 16 14 23 15 29 6 5 -8 3 -10 -6 -4 -9 5 -11 4 -6
-4 6 -9 11 -9 21 -1 14 12 97 16 113 6 6 -3 14 -1 18 5 5 8 3 9 -6 4 -9 -5
-11 -4 -6 4 5 8 12 9 20 2 13 -11 34 -10 55 3 9 6 12 5 8 -1 -7 -11 82 -11
101 1 6 4 12 3 12 -1 0 -5 9 -9 20 -10 11 -1 18 2 16 6 -3 4 1 8 9 8 8 0 15
-3 15 -6 0 -9 48 -6 57 2 11 12 25 8 17 -5 -6 -10 -4 -10 7 -2 21 17 91 26 83
11 -3 -7 2 -3 10 7 9 11 16 15 16 8 0 -10 37 -9 48 3 3 2 11 0 19 -6 10 -9 13
-8 13 1 0 10 3 10 15 0 12 -10 15 -10 15 0 0 10 3 10 14 1 10 -8 16 -9 21 -1
3 6 11 8 16 4 15 -9 69 -12 64 -3 -3 3 6 7 20 6 15 0 22 -4 18 -11 -3 -6 2 -4
13 5 22 19 55 19 81 -2 16 -13 17 -12 5 2 -10 14 -10 18 3 23 8 3 15 2 15 -2
0 -4 9 -8 19 -8 11 0 18 3 16 6 -2 3 20 5 48 5 55 -2 79 3 73 14 -2 3 7 6 20
6 15 0 22 -5 19 -13 -3 -9 1 -9 18 2 12 7 35 12 50 11 15 -1 30 2 33 7 3 4 11
5 17 1 23 -14 39 -12 33 4 -5 13 -4 14 8 4 11 -9 16 -9 21 0 6 8 10 7 16 -2 5
-8 9 -9 9 -3 0 6 12 11 28 12 66 0 83 3 78 10 -3 5 1 9 9 9 8 0 11 -5 8 -11
-4 -6 4 -2 17 9 13 11 20 14 15 6 -6 -10 -2 -12 15 -6 12 4 30 9 39 10 9 2 18
4 21 5 3 1 8 2 13 1 4 0 7 4 7 10 0 5 5 7 10 4 6 -3 10 -1 10 5 0 6 5 8 10 5
6 -3 10 -2 10 4 0 5 8 12 18 15 22 7 65 79 54 91 -4 5 1 5 11 2 11 -4 16 -3
12 3 -11 18 -14 49 -5 55 4 3 6 14 3 25 -3 11 -1 20 5 20 5 0 13 7 16 16 4 11
2 15 -8 11 -12 -5 -12 -2 0 21 9 17 10 28 3 30 -6 3 -5 10 3 20 11 13 11 14 0
8 -11 -7 -12 -4 -5 10 5 11 8 31 7 47 -2 19 1 25 9 21 8 -5 8 -3 0 7 -15 16
-17 33 -3 24 6 -4 7 2 1 17 -5 13 -6 31 -2 39 4 7 7 21 6 29 0 8 4 18 10 22 6
5 5 8 -4 8 -11 0 -11 3 0 17 12 15 12 16 -1 8 -13 -7 -13 -6 -2 7 9 12 10 18
2 23 -8 5 -8 11 1 21 9 11 8 14 -2 14 -9 0 -10 3 -4 8 12 8 13 91 2 110 -5 6
-4 12 2 12 10 0 9 19 -2 38 -5 6 -4 12 0 12 10 0 10 41 -1 58 -4 7 -3 12 3 12
9 0 8 31 -3 48 -2 4 -1 14 4 22 4 7 4 23 0 36 -5 12 -6 25 -2 29 11 11 9 75
-2 75 -8 0 -8 3 -1 8 6 4 11 25 11 47 0 22 -5 43 -11 47 -7 5 -6 8 1 8 6 0 11
7 11 15 0 8 -5 15 -11 15 -6 0 -5 4 2 9 8 4 14 12 14 16 0 4 -6 12 -14 16 -7
5 -8 9 -3 9 6 0 10 20 10 45 0 25 -4 45 -9 45 -5 0 -3 7 4 15 10 12 10 15 -1
15 -11 0 -11 2 1 10 12 8 12 10 1 10 -10 0 -11 3 -2 14 8 10 9 16 1 21 -5 3
-10 11 -10 16 0 6 6 7 13 3 7 -5 7 -1 -2 10 -12 14 -12 19 -2 26 11 6 11 8 0
12 -7 2 -14 16 -14 31 -1 15 2 24 8 20 6 -3 6 1 0 12 -6 10 -8 26 -6 36 3 11
-1 27 -8 36 -8 9 -9 14 -3 10 7 -4 11 6 11 28 0 20 -4 32 -10 28 -6 -3 -7 -1
-3 5 11 17 13 82 4 82 -5 0 -6 5 -2 12 11 17 11 58 1 58 -4 0 -3 9 3 20 6 11
7 20 3 20 -10 0 -10 41 1 58 4 7 2 12 -4 12 -7 0 -8 6 -1 17 5 10 5 26 1 39
-6 15 -5 24 3 28 9 3 9 5 -1 5 -10 1 -10 6 -1 22 7 14 7 19 0 15 -7 -5 -9 8
-6 39 4 32 1 45 -7 45 -10 0 -9 3 1 9 11 7 10 11 -5 20 -19 10 -19 10 0 11 13
0 16 4 9 13 -12 16 -14 59 -2 52 5 -4 9 -2 9 3 0 6 -7 13 -15 16 -12 4 -13 10
-6 24 7 13 7 22 -1 30 -9 9 -9 12 2 12 10 0 11 3 3 11 -7 7 -8 21 -3 40 5 16
5 31 0 34 -5 3 -5 18 0 34 4 15 5 33 1 39 -3 6 -6 33 -5 61 1 28 -2 51 -6 51
-3 0 -7 7 -7 15 0 8 4 12 8 10 4 -3 9 2 13 10 3 8 1 17 -4 20 -6 4 -10 15 -10
26 0 10 -6 19 -12 19 -9 0 -8 4 2 10 12 8 12 10 1 10 -10 0 -11 3 -2 13 6 8 8
17 4 21 -4 3 -7 58 -8 121 -2 71 -7 120 -14 129 -9 11 -9 16 0 22 8 5 9 3 4
-6 -5 -9 -4 -11 3 -6 17 10 15 26 -3 26 -16 0 -16 20 0 32 6 5 6 8 -2 8 -7 0
-10 20 -9 59 1 33 -1 58 -5 55 -7 -4 -24 63 -20 79 1 5 -2 7 -6 4 -5 -2 -16 4
-25 15 -12 12 -14 18 -5 18 8 0 7 3 -3 9 -8 6 -17 8 -21 5 -8 -4 -23 26 -20
39 1 5 -3 5 -9 2 -6 -4 -28 12 -49 35 -22 25 -43 40 -50 36 -6 -4 -11 -1 -11
8 0 9 -5 16 -11 16 -15 0 -39 26 -32 34 4 3 -3 6 -15 6 -12 0 -22 5 -22 10 0
6 -5 10 -10 10 -6 0 -24 14 -40 30 -17 17 -30 25 -30 18 0 -9 -3 -9 -9 2 -6 8
-8 17 -5 21 2 4 -4 6 -14 5 -9 0 -16 5 -14 12 1 8 -2 11 -8 7 -5 -3 -13 0 -16
9 -3 8 -14 13 -24 11 -13 -3 -17 1 -13 11 3 8 2 14 -3 12 -14 -4 -54 25 -54
38 0 7 -9 10 -22 6 -14 -3 -19 -2 -14 6 4 7 1 12 -8 12 -9 0 -16 7 -16 15 0 8
-6 12 -12 10 -7 -3 -29 8 -48 25 -19 16 -40 30 -46 30 -14 0 -46 35 -38 43 3
3 -3 3 -14 0 -13 -3 -25 3 -34 16 -8 12 -18 18 -21 14 -4 -3 -7 -1 -7 6 0 7
-4 9 -10 6 -5 -3 -10 1 -10 10 0 9 -4 14 -9 10 -5 -3 -16 1 -24 9 -8 8 -17 12
-21 9 -3 -4 -6 1 -6 11 0 10 -5 14 -11 11 -6 -4 -19 2 -30 14 -11 12 -25 18
-31 15 -7 -5 -9 -1 -5 9 4 12 2 14 -10 10 -9 -4 -19 1 -25 11 -5 9 -13 14 -19
11 -5 -4 -12 1 -15 9 -3 9 -10 14 -14 11 -5 -3 -15 2 -23 10 -9 8 -20 15 -25
15 -6 0 -13 6 -15 13 -4 9 -6 9 -6 -1 -1 -10 -5 -10 -17 2 -8 9 -20 14 -25 11
-5 -4 -9 -2 -9 2 0 10 -25 14 -82 17 -21 0 -38 5 -38 10 0 6 -5 5 -11 -1 -7
-7 -21 -8 -40 -3 -16 5 -29 5 -29 1 0 -3 -9 -7 -20 -7 -13 0 -19 5 -15 14 3 8
0 10 -8 5 -6 -4 -26 -7 -43 -8 -24 0 -30 4 -26 15 5 13 3 13 -10 2 -12 -9 -18
-10 -23 -2 -5 8 -11 8 -19 1 -9 -7 -16 -7 -24 1 -9 9 -12 9 -12 0 0 -10 -5
-10 -21 -1 -16 8 -20 8 -14 -1 6 -9 3 -9 -12 -1 -14 7 -23 7 -32 -2 -8 -8 -14
-8 -19 -2 -8 12 -32 13 -49 2 -7 -5 -13 -4 -13 2 0 10 -31 8 -49 -4 -5 -3 -12
-1 -16 5 -4 7 -13 6 -27 -1 -13 -7 -18 -7 -14 -1 7 12 -33 10 -53 -3 -9 -5
-12 -4 -7 3 4 7 -3 10 -21 8 -16 -1 -36 2 -47 7 -14 7 -16 6 -11 -4 6 -9 3
-10 -11 -5 -10 4 -29 9 -42 11 -17 2 -22 -1 -17 -13 5 -14 4 -14 -12 0 -12 10
-25 13 -38 8 -32 -13 -38 -11 -24 8 12 15 12 16 -2 5 -9 -7 -20 -9 -24 -5 -5
4 -5 -2 -1 -12 6 -16 4 -17 -10 -5 -19 15 -54 20 -54 6 0 -5 -7 -4 -15 3 -9 7
-15 8 -15 2 0 -5 -7 -13 -16 -16 -13 -5 -14 -3 -6 6 8 10 5 13 -14 13 -13 0
-24 -4 -24 -9 0 -6 -5 -5 -11 1 -9 9 -15 8 -27 -3 -18 -19 -29 -10 -12 11 7 8
10 15 7 15 -2 0 -10 -6 -16 -14z m-119 -284 c20 -2 39 2 43 8 3 5 12 10 18 10
7 0 6 -4 -3 -11 -12 -8 -10 -9 10 -7 14 2 28 8 32 13 5 6 8 5 8 -4 0 -10 3
-11 14 -2 11 10 17 8 25 -6 6 -10 11 -13 11 -6 0 6 8 10 18 8 9 -1 23 3 31 9
11 8 13 8 8 0 -4 -7 0 -15 9 -18 8 -3 12 -2 9 3 -3 5 -1 12 5 16 5 3 10 2 10
-3 0 -6 7 -12 14 -15 10 -4 13 -1 10 8 -4 10 0 12 15 8 12 -3 18 -10 14 -17
-4 -6 1 -5 10 3 9 7 17 10 17 7 0 -4 10 -2 21 5 13 6 19 7 15 1 -4 -7 14 -10
49 -8 30 0 55 -2 55 -7 0 -4 5 -5 10 -2 6 4 7 12 3 18 -5 8 -2 8 9 -1 8 -7 33
-11 57 -9 23 2 45 -1 48 -6 3 -5 8 -5 12 0 3 5 45 6 94 3 48 -3 87 -3 87 0 0
3 11 5 25 5 14 0 25 -2 25 -5 0 -3 27 -5 60 -3 45 1 59 -1 54 -10 -5 -9 -3 -8
7 1 16 15 33 16 23 0 -5 -7 -3 -8 7 -3 20 13 91 13 86 1 -3 -7 24 -10 79 -9
49 1 82 -2 78 -8 -3 -5 4 -9 15 -9 11 0 25 -9 31 -21 9 -16 14 -18 26 -8 11 9
14 7 15 -12 0 -13 3 -19 5 -12 3 7 12 9 20 6 7 -3 12 -9 9 -13 -3 -4 6 -11 20
-14 14 -4 25 -11 25 -16 0 -6 7 -10 16 -10 9 0 12 -5 8 -11 -4 -7 -1 -10 7 -7
7 2 20 -2 29 -9 8 -7 18 -12 22 -11 4 2 15 -7 23 -19 9 -13 22 -23 29 -23 8 0
19 -7 26 -15 7 -8 16 -12 21 -9 5 3 9 -2 9 -10 0 -10 6 -13 17 -9 11 4 14 3 9
-5 -4 -7 -2 -12 4 -12 17 0 40 -26 32 -36 -4 -5 0 -3 9 3 12 10 19 9 31 -5 26
-27 46 -42 58 -42 5 0 10 -4 10 -10 0 -5 6 -10 14 -10 8 0 17 -7 20 -16 3 -8
10 -13 15 -10 5 3 12 -1 15 -10 4 -9 13 -14 22 -10 8 3 13 2 10 -3 -3 -5 1
-12 10 -15 8 -3 12 -11 8 -17 -4 -7 -3 -9 4 -5 6 3 23 -6 38 -21 15 -16 23
-21 18 -13 -5 10 -2 9 8 -2 9 -10 21 -18 26 -18 5 0 13 -7 16 -16 3 -8 10 -12
16 -9 5 3 10 -1 10 -9 0 -8 5 -18 12 -22 7 -5 8 -2 3 7 -5 8 3 4 16 -7 13 -12
36 -32 51 -44 15 -13 25 -27 22 -31 -3 -5 1 -7 8 -4 7 3 26 -7 43 -22 16 -16
33 -27 38 -25 5 1 6 -2 2 -8 -3 -5 -2 -10 3 -10 5 0 12 -9 15 -20 3 -11 1 -18
-3 -15 -9 5 -8 -14 1 -30 13 -23 18 -46 9 -40 -6 3 -10 2 -10 -4 0 -5 6 -11
13 -14 9 -3 8 -8 -3 -22 -8 -10 -10 -16 -3 -12 17 11 26 -10 13 -32 -5 -11 -7
-22 -2 -25 4 -2 7 -52 7 -109 0 -58 3 -103 6 -101 4 2 9 -3 12 -11 4 -9 1 -12
-9 -8 -7 3 -14 0 -14 -6 0 -6 7 -11 16 -11 13 0 14 -3 5 -14 -9 -11 -9 -16 0
-21 8 -6 7 -10 -2 -16 -8 -5 -9 -9 -4 -9 15 0 16 -40 2 -40 -8 0 -8 -3 1 -9 8
-4 14 -12 14 -16 0 -4 -6 -12 -14 -16 -7 -5 -8 -9 -2 -9 7 0 10 -33 9 -92 0
-51 4 -99 9 -105 5 -8 5 -13 -1 -13 -12 0 -4 -58 9 -66 5 -3 2 -15 -8 -25 -13
-15 -14 -18 -3 -14 10 4 15 -1 16 -15 1 -11 -3 -20 -8 -20 -6 0 -7 5 -3 12 5
7 3 8 -5 4 -9 -6 -8 -13 6 -29 10 -11 12 -17 6 -13 -7 4 -13 2 -13 -3 0 -6 5
-11 10 -11 6 0 10 -5 10 -11 0 -5 -4 -8 -8 -5 -4 2 -8 -4 -8 -14 0 -10 4 -16
8 -14 4 3 8 1 8 -5 0 -5 -5 -13 -11 -16 -7 -5 -4 -14 7 -26 17 -19 17 -20 0
-13 -16 6 -17 5 -6 -16 10 -18 9 -24 -1 -31 -8 -5 -9 -9 -3 -9 7 0 11 -48 12
-142 2 -94 6 -146 15 -157 9 -12 9 -13 0 -7 -7 4 -13 3 -13 -1 0 -5 6 -15 13
-22 10 -11 10 -13 0 -7 -7 4 -13 3 -13 -1 0 -5 6 -15 13 -22 10 -11 10 -13 0
-7 -7 4 -13 2 -13 -3 0 -6 5 -11 11 -11 8 0 7 -5 -2 -16 -10 -13 -10 -17 2
-25 12 -7 12 -9 -1 -9 -13 0 -13 -1 0 -11 11 -8 12 -12 3 -16 -7 -2 -13 -9
-13 -14 0 -6 6 -7 13 -3 9 5 9 4 0 -6 -9 -10 -10 -17 -2 -27 9 -10 8 -13 -2
-13 -10 0 -10 -3 -1 -12 13 -13 17 -32 5 -25 -5 3 -8 -6 -8 -19 0 -17 4 -23
15 -19 9 3 7 -1 -4 -10 -11 -8 -14 -15 -8 -15 7 0 12 -7 12 -16 0 -9 -5 -12
-12 -8 -10 6 -10 5 -2 -7 14 -17 15 -71 2 -63 -5 3 -4 -3 4 -15 11 -17 11 -25
0 -42 -8 -12 -9 -18 -3 -14 7 3 11 -2 11 -14 0 -10 -6 -22 -12 -24 -7 -3 -4
-6 6 -6 20 -1 20 -1 0 -17 -10 -8 -13 -12 -6 -9 10 5 13 1 11 -16 -2 -13 0
-30 4 -36 5 -8 3 -13 -3 -13 -6 0 -8 -5 -5 -11 8 -12 12 -129 5 -129 -3 0 -4
-19 -3 -42 1 -24 2 -43 3 -43 1 0 3 -8 5 -17 2 -10 -1 -18 -6 -18 -6 0 -5 -8
1 -20 6 -12 7 -20 1 -20 -6 0 -6 -11 -1 -30 5 -16 6 -30 2 -30 -11 0 -8 -134
3 -142 6 -4 1 -8 -10 -8 -11 0 -15 -4 -10 -8 16 -11 18 -52 3 -52 -10 0 -10
-2 1 -9 10 -7 11 -13 1 -31 -8 -15 -8 -20 -1 -16 6 4 11 2 11 -3 0 -6 -6 -11
-12 -12 -9 0 -10 -2 -1 -5 8 -4 9 -14 3 -35 -5 -16 -5 -27 0 -24 5 3 12 0 16
-6 4 -8 3 -9 -4 -5 -7 4 -12 2 -12 -4 0 -6 -4 -9 -9 -6 -5 4 -7 -3 -4 -14 3
-11 10 -17 17 -13 7 4 6 1 -1 -9 -7 -8 -10 -18 -6 -21 3 -4 2 -7 -3 -7 -5 0
-8 -19 -6 -41 3 -29 1 -40 -7 -35 -6 4 -11 2 -11 -3 0 -6 5 -11 11 -11 14 0
-11 -24 -33 -33 -11 -4 -18 -2 -18 5 0 6 -5 7 -12 2 -7 -5 -32 -9 -55 -9 -23
1 -40 -2 -37 -6 2 -4 -3 -9 -11 -13 -8 -3 -17 -1 -21 5 -4 6 -11 6 -20 -2 -11
-9 -14 -8 -14 2 0 12 -2 12 -9 1 -11 -17 -21 -17 -32 0 -6 8 -9 9 -9 2 0 -7
-14 -11 -35 -10 -19 1 -35 -3 -35 -8 0 -4 -8 -2 -17 5 -11 10 -14 10 -9 2 4
-7 5 -13 2 -13 -2 0 -12 -3 -22 -7 -12 -4 -15 -3 -10 5 5 9 1 9 -17 3 -14 -6
-28 -7 -31 -4 -3 3 -12 1 -19 -5 -8 -7 -17 -9 -21 -5 -8 8 -86 11 -86 3 0 -3
-8 -6 -17 -7 -10 0 -28 -3 -40 -6 -13 -3 -23 -1 -23 5 0 6 -7 5 -17 -3 -15
-12 -16 -12 -8 1 6 12 5 13 -5 3 -11 -10 -17 -10 -29 0 -12 10 -13 9 -7 -1 10
-16 -25 -13 -36 3 -5 6 -8 5 -8 -3 0 -9 -11 -13 -34 -11 -19 2 -41 -3 -50 -10
-14 -12 -16 -12 -10 4 6 14 4 16 -12 8 -10 -6 -25 -8 -33 -5 -9 3 -11 0 -6 -9
6 -11 5 -11 -5 -2 -9 9 -19 9 -33 2 -12 -7 -17 -7 -13 -1 3 6 -4 9 -18 8 -13
0 -22 -4 -19 -8 2 -5 -1 -8 -6 -8 -6 0 -11 6 -11 13 0 8 -4 7 -10 -3 -7 -11
-10 -11 -10 -2 0 7 -5 10 -10 7 -6 -4 -8 -11 -5 -16 3 -5 -1 -6 -9 -3 -9 3
-13 11 -9 18 4 7 2 7 -8 -1 -9 -7 -31 -13 -50 -13 -135 0 -199 -5 -199 -14 0
-6 -4 -5 -9 3 -8 12 -12 12 -24 2 -11 -8 -17 -9 -22 -1 -3 6 -11 8 -16 4 -5
-3 -6 -10 -3 -16 4 -7 2 -8 -5 -4 -6 4 -9 12 -5 17 9 15 -19 6 -34 -11 -8 -8
-11 -10 -8 -3 9 17 -15 28 -25 12 -6 -9 -12 -10 -16 -4 -5 6 -14 11 -22 13
-12 3 -12 1 -1 -13 12 -14 10 -15 -14 -6 -15 6 -26 7 -26 1 0 -5 -12 -5 -30 0
-16 5 -30 6 -30 2 0 -4 -85 -7 -189 -6 -132 0 -188 -3 -184 -10 5 -8 2 -8 -8
0 -9 7 -84 10 -207 10 -107 -1 -196 2 -198 6 -3 4 -11 5 -18 2 -23 -9 -96 -10
-96 -1 0 4 -5 5 -12 1 -18 -11 -100 -4 -117 9 -12 10 -13 9 -7 -8 5 -15 4 -17
-5 -8 -6 6 -18 9 -27 5 -12 -4 -14 -1 -8 13 7 18 6 18 -13 1 -12 -11 -21 -13
-25 -7 -4 6 -29 9 -56 8 -28 -1 -50 2 -50 8 0 5 -5 3 -10 -5 -5 -8 -10 -10
-10 -5 0 6 -16 10 -35 10 -43 -2 -53 9 -51 55 1 19 -3 38 -8 42 -7 5 -6 8 2 8
8 0 10 5 5 13 -11 17 -10 41 2 49 6 4 1 8 -10 8 -17 0 -17 2 -5 10 13 9 13 10
0 10 -12 0 -12 2 -2 9 11 7 10 9 -3 15 -9 3 -13 11 -9 18 9 14 13 98 5 98 -3
0 -6 35 -6 79 0 65 -2 78 -15 73 -11 -4 -10 0 4 16 18 21 18 22 1 29 -18 6
-18 7 1 14 17 7 17 8 1 8 -14 1 -16 5 -7 20 7 14 7 22 -1 27 -8 4 -7 9 2 16
11 8 11 11 1 15 -9 4 -10 8 -2 18 7 9 8 15 1 19 -7 5 -7 15 -1 32 7 17 7 23 0
19 -7 -4 -9 3 -6 19 3 15 0 26 -7 26 -6 0 -2 7 9 16 10 8 13 12 5 8 -10 -5
-11 -1 -6 16 4 14 3 20 -3 17 -6 -4 -7 8 -2 32 6 33 5 38 -9 33 -13 -4 -14 -3
-5 9 5 8 10 21 9 29 0 8 4 18 10 22 6 5 3 8 -6 8 -12 0 -15 8 -13 31 2 17 6
34 9 39 3 5 -1 11 -7 14 -11 5 -11 7 0 12 6 3 9 10 6 16 -4 6 -8 74 -9 152 -2
114 -5 140 -16 138 -9 -1 -7 3 4 12 10 8 14 17 8 20 -6 4 -6 18 -1 36 6 19 5
32 -2 36 -7 5 -8 2 -3 -6 6 -9 4 -11 -4 -6 -9 6 -8 13 5 27 17 19 17 20 -2 13
-16 -6 -17 -5 -6 7 14 15 17 33 4 25 -5 -3 -9 1 -9 9 0 8 4 12 9 9 4 -3 8 -1
8 5 0 5 -5 13 -10 16 -7 4 -7 13 0 26 8 14 7 19 -2 20 -11 0 -11 2 0 6 10 4
10 8 1 19 -9 11 -8 14 2 14 9 0 10 3 4 8 -15 11 -17 64 -2 55 7 -4 7 0 -2 10
-11 14 -11 17 0 17 9 0 10 3 4 8 -12 8 -13 52 -2 70 5 6 5 18 0 25 -12 20 -12
37 0 37 9 0 9 2 0 8 -14 9 -14 51 1 71 8 11 8 13 0 8 -8 -4 -11 21 -10 83 1
50 -2 90 -5 90 -3 0 -3 20 1 45 4 26 3 48 -3 52 -5 3 -3 9 4 14 8 5 9 9 3 9
-6 0 -9 13 -6 30 2 17 -1 37 -8 45 -11 13 -10 14 6 8 18 -7 18 -6 1 20 -14 22
-14 25 -2 21 11 -5 13 -2 9 10 -3 9 -11 16 -18 16 -6 0 -3 5 7 11 12 7 15 15
9 27 -4 9 -7 50 -6 89 1 40 -2 71 -6 68 -4 -2 -7 2 -7 9 0 8 6 12 13 9 14 -5
8 33 -7 42 -13 8 2 36 15 28 6 -3 2 4 -8 16 -20 22 -20 22 0 16 19 -7 19 -6 0
9 -11 9 -15 16 -9 16 6 0 11 19 10 44 0 29 -4 43 -11 39 -6 -3 -5 0 2 8 14 15
16 55 2 64 -5 3 -7 12 -4 20 4 8 10 12 15 9 5 -3 6 2 3 10 -3 9 -11 13 -18 9
-6 -3 -6 -1 2 8 15 16 16 55 1 64 -7 5 -4 14 7 26 16 17 16 19 2 14 -13 -5
-16 -1 -14 19 1 13 8 32 16 41 11 13 10 15 -3 9 -11 -4 -14 0 -12 13 2 10 4
22 4 26 1 5 6 5 13 1 6 -4 8 -3 5 3 -3 5 -7 31 -8 59 -1 27 -6 54 -11 61 -6 7
-4 14 3 19 8 5 9 3 4 -6 -5 -9 -4 -11 3 -6 9 5 9 13 2 27 -8 13 -7 19 0 19 7
0 8 6 0 19 -7 14 -7 22 0 26 8 5 7 12 -2 23 -7 9 -8 13 -2 9 7 -4 10 13 8 53
-1 33 2 60 8 60 5 0 6 6 1 13 -12 20 -12 37 0 37 7 0 5 5 -3 10 -9 6 -10 10
-3 10 6 0 10 9 8 20 -2 11 -1 20 3 20 4 0 7 21 6 46 -1 39 2 45 17 41 10 -3
17 0 16 6 -2 13 24 16 40 5 6 -5 14 -5 17 1 3 5 17 8 31 6 14 -1 25 2 25 7 0
5 5 6 10 3 6 -3 10 -1 10 4 0 6 5 11 11 11 5 0 7 -5 3 -11 -5 -8 -1 -8 14 0
11 6 34 9 51 7 17 -2 31 0 31 4 0 5 10 6 22 2 16 -4 19 -2 13 9 -5 8 2 5 14
-6 12 -11 22 -15 21 -10 -5 22 1 29 10 15 7 -10 13 -11 18 -5 10 15 72 15 72
1 0 -7 3 -7 8 1 5 8 29 12 65 10 31 -1 57 0 57 3 0 3 20 5 44 5 27 0 43 -4 40
-10 -3 -5 1 -2 8 7 7 9 15 14 18 10 3 -5 22 -9 42 -10z m2309 -449 c13 -16 12
-17 -3 -4 -10 7 -18 15 -18 17 0 8 8 3 21 -13z m224 -763 c3 -5 1 -10 -4 -10
-6 0 -11 5 -11 10 0 6 2 10 4 10 3 0 8 -4 11 -10z"/>
<path d="M3553 4827 c-4 -6 -1 -7 8 -2 8 5 10 4 6 0 -10 -12 -38 -15 -31 -4 3
5 1 9 -5 9 -5 0 -12 -6 -14 -12 -4 -10 -6 -10 -6 -1 -1 9 -8 10 -26 3 -17 -7
-25 -6 -25 1 0 8 -4 8 -14 0 -10 -9 -15 -9 -18 -1 -2 8 -11 8 -30 1 -19 -7
-29 -7 -34 0 -4 8 -9 7 -15 -2 -8 -12 -10 -12 -18 0 -5 8 -14 10 -22 5 -18
-11 -239 -11 -232 0 4 5 0 6 -7 1 -17 -11 -200 -13 -200 -2 0 4 -9 3 -21 -3
-11 -7 -23 -9 -26 -6 -10 10 -44 -15 -36 -27 4 -7 -2 -5 -12 3 -10 8 -16 10
-12 3 4 -6 0 -19 -9 -27 -9 -9 -13 -23 -10 -32 3 -8 2 -12 -4 -9 -6 3 -10 -4
-11 -17 0 -13 -2 -31 -4 -41 -3 -14 -1 -16 10 -7 11 9 13 7 9 -13 -4 -27 20
-62 37 -52 5 4 6 -1 3 -9 -6 -14 4 -19 32 -15 4 0 10 -5 14 -11 5 -8 38 -12
93 -13 59 0 84 -4 80 -11 -5 -8 -3 -8 8 -1 9 7 96 11 231 10 120 0 218 4 218
8 0 4 9 3 20 -3 16 -9 20 -8 21 7 0 15 2 15 7 3 4 -8 17 -15 29 -16 19 0 21 2
10 14 -10 13 -9 14 11 3 13 -7 30 -10 37 -7 8 3 17 1 21 -5 4 -6 11 -6 20 2 8
7 31 13 52 14 20 1 36 7 35 13 -2 6 6 9 17 7 12 -2 17 1 14 10 -3 7 4 22 16
33 14 13 18 22 10 27 -7 5 -8 11 -1 19 12 14 11 56 -2 56 -4 0 -6 4 -2 9 3 6
-3 14 -12 20 -11 6 -13 11 -5 11 7 0 1 11 -13 24 -15 14 -33 22 -41 19 -8 -3
-14 -1 -14 5 0 5 -13 9 -30 8 -16 -1 -30 3 -30 8 0 6 -5 3 -11 -6 -5 -10 -15
-18 -22 -18 -8 0 -8 3 1 9 10 6 7 10 -12 13 -15 3 -29 1 -33 -5z"/>
<path d="M4305 4069 c4 -6 -4 -8 -22 -6 -15 2 -34 0 -40 -6 -9 -6 -13 -6 -13
2 0 7 -5 9 -12 4 -7 -4 -21 -6 -32 -4 -10 1 -15 -2 -12 -7 3 -6 -2 -9 -11 -7
-10 2 -27 4 -38 4 -17 1 -17 3 -5 11 8 5 10 10 5 10 -6 0 -16 -5 -23 -12 -9
-9 -12 -9 -12 1 0 7 -5 9 -12 4 -20 -12 -41 -13 -55 -1 -9 7 -13 7 -13 -2 0
-10 -3 -10 -14 -1 -10 9 -16 9 -21 1 -5 -8 -11 -8 -19 -1 -7 6 -23 8 -37 5
-13 -3 -34 -6 -47 -5 -16 1 -21 -3 -16 -12 6 -9 5 -9 -8 0 -8 7 -18 10 -21 6
-4 -3 -7 0 -7 8 -1 10 -5 8 -15 -5 -11 -15 -15 -16 -15 -5 0 8 -9 15 -19 15
-11 0 -17 -4 -15 -8 3 -4 -2 -8 -11 -8 -10 0 -13 5 -9 13 5 8 2 8 -9 -2 -12
-9 -17 -10 -17 -2 0 7 -5 9 -12 5 -20 -13 -99 -13 -91 0 3 6 1 6 -8 -1 -16
-16 -33 -17 -23 -2 5 8 1 8 -14 0 -27 -14 -35 -14 -26 1 5 7 3 8 -7 2 -20 -12
-93 -12 -101 0 -4 6 -12 5 -22 -3 -11 -9 -16 -10 -16 -2 0 6 -5 11 -11 11 -5
0 -8 -4 -5 -8 2 -4 -4 -8 -14 -8 -10 0 -17 3 -14 7 2 4 -4 6 -13 4 -10 -2 -18
-4 -18 -6 0 -1 -10 -3 -22 -4 -13 -1 -23 3 -23 9 0 6 -4 5 -9 -3 -6 -9 -10
-10 -16 -2 -4 8 -11 9 -18 2 -14 -10 -76 -9 -94 2 -6 4 -14 3 -18 -3 -3 -5
-11 -10 -16 -10 -6 0 -7 5 -3 11 5 8 1 8 -14 0 -27 -14 -35 -14 -26 2 6 10 4
10 -7 0 -15 -14 -33 -18 -25 -5 3 5 -8 8 -24 8 -16 0 -27 -3 -24 -8 8 -13 -10
-9 -25 5 -8 6 -11 7 -8 1 5 -8 -13 -11 -57 -11 -41 1 -63 5 -60 12 3 5 -1 2
-10 -9 -8 -10 -20 -15 -27 -10 -7 4 -10 3 -6 -3 4 -6 -4 -19 -17 -28 -15 -12
-23 -27 -21 -41 1 -13 -1 -21 -5 -19 -4 3 -10 -4 -13 -15 -3 -11 0 -23 5 -27
7 -4 8 -1 3 7 -5 8 -4 11 3 6 7 -4 8 -17 2 -36 -5 -17 -5 -28 -1 -26 5 3 13
-6 20 -20 6 -14 16 -22 21 -19 6 3 10 3 10 -2 0 -4 12 -16 25 -26 22 -15 24
-16 18 -1 -5 13 -3 14 16 5 11 -6 30 -15 41 -21 10 -5 21 -6 24 -1 3 4 24 7
46 5 25 -2 40 1 40 8 0 7 7 3 16 -8 8 -10 12 -12 8 -4 -7 13 -5 13 9 1 9 -7
17 -9 17 -4 0 5 9 9 20 10 11 1 20 -3 20 -9 0 -7 4 -7 13 1 10 8 17 7 27 -2
10 -9 11 -9 6 1 -8 14 10 17 19 2 4 -7 13 -7 24 0 12 6 22 5 31 -3 10 -9 11
-9 6 1 -8 14 10 17 19 2 4 -7 13 -7 26 0 14 8 19 7 19 -2 0 -8 3 -9 8 -3 10
14 42 18 42 5 0 -6 5 -8 13 -3 21 13 47 13 47 0 0 -7 3 -8 8 -2 11 15 32 17
32 3 0 -9 3 -9 12 0 7 7 17 8 30 1 10 -5 18 -6 18 -1 0 4 33 8 73 7 39 -1 77
2 84 7 7 6 14 4 19 -3 5 -8 3 -9 -6 -4 -9 5 -11 4 -6 -4 4 -6 13 -8 19 -4 18
11 49 14 43 4 -3 -5 3 -7 14 -4 11 3 17 9 14 14 -3 5 2 6 10 3 9 -3 13 -11 9
-18 -3 -6 4 -2 17 9 13 11 20 14 16 8 -4 -8 -1 -13 9 -13 9 0 14 4 11 9 -4 5
4 7 16 3 12 -3 19 -1 15 4 -3 5 3 10 13 10 10 0 16 -5 13 -10 -3 -5 -1 -6 5
-2 6 3 13 3 16 -2 8 -13 87 -2 80 12 -3 6 4 0 15 -13 12 -13 21 -19 21 -13 0
5 16 9 35 7 19 -1 32 2 29 7 -3 5 6 6 20 2 18 -4 26 -2 26 7 1 8 8 3 16 -11 9
-15 13 -18 9 -6 -5 17 -4 17 12 5 11 -9 14 -10 9 -1 -4 7 -1 12 9 12 10 0 14
-5 9 -12 -5 -10 -4 -10 6 -1 9 9 19 9 33 2 14 -8 18 -8 13 0 -9 14 6 15 20 1
6 -6 15 -5 24 1 12 9 11 10 -5 4 -17 -5 -18 -4 -7 7 11 11 16 10 28 -6 9 -13
14 -15 14 -6 0 7 3 10 7 7 3 -4 13 -1 21 6 13 9 14 9 8 -1 -8 -13 19 -13 42 2
8 5 20 2 31 -8 22 -20 31 -20 31 0 0 8 5 12 10 9 6 -4 8 -10 6 -14 -3 -3 4 -7
14 -7 10 0 17 3 14 7 -6 11 27 20 40 11 13 -10 27 -9 44 1 7 5 12 3 12 -5 0
-9 3 -10 8 -2 4 6 17 14 30 18 12 4 22 13 22 21 0 7 7 21 16 29 20 20 26 66
10 85 -8 12 -8 13 2 7 18 -11 15 4 -5 27 -13 15 -14 19 -3 13 8 -4 3 2 -13 14
-15 12 -25 26 -21 31 3 5 -9 9 -26 9 -17 0 -29 4 -26 8 3 5 -19 9 -48 9 -29 0
-59 4 -66 8 -9 5 -11 4 -6 -3 4 -7 1 -12 -9 -12 -10 0 -13 -5 -9 -12 5 -7 3
-8 -5 -4 -7 5 -10 15 -6 24 4 12 1 12 -16 -4 -12 -10 -19 -13 -14 -5 6 11 4
13 -9 8 -10 -4 -22 -7 -27 -7 -6 0 -7 -5 -3 -12 5 -7 3 -8 -5 -4 -7 5 -10 15
-6 24 4 12 1 12 -16 -4 -12 -10 -19 -14 -16 -8 4 7 0 15 -9 18 -9 3 -12 2 -9
-5z m-294 -143 c8 4 9 3 5 -4 -4 -7 -2 -12 4 -12 6 0 8 -5 4 -11 -5 -8 -8 -8
-14 0 -4 7 -13 11 -20 9 -7 -2 -14 5 -15 15 -3 14 -1 16 10 7 8 -7 20 -8 26
-4z m-46 -26 c3 -5 1 -10 -4 -10 -6 0 -11 5 -11 10 0 6 2 10 4 10 3 0 8 -4 11
-10z m-58 -95 c0 -8 -4 -12 -9 -9 -4 3 -8 9 -8 15 0 5 4 9 8 9 5 0 9 -7 9 -15z
m117 -3 c3 -5 -1 -9 -9 -9 -8 0 -12 4 -9 9 3 4 7 8 9 8 2 0 6 -4 9 -8z"/>
<path d="M4571 3313 c7 -8 1 -9 -26 -3 -23 5 -35 4 -35 -3 0 -8 -3 -8 -11 0
-6 6 -26 7 -47 4 -20 -4 -58 -6 -84 -5 -32 2 -48 -1 -48 -9 0 -7 -5 -4 -11 5
-9 17 -11 17 -37 0 -14 -9 -23 -12 -19 -5 9 15 -44 13 -55 -2 -5 -6 -8 -5 -8
3 0 6 -5 12 -11 12 -5 0 -7 -4 -4 -10 3 -6 -1 -7 -9 -4 -9 3 -13 11 -9 17 4 6
1 7 -8 1 -8 -5 -33 -9 -56 -9 -23 0 -45 -4 -49 -8 -4 -4 -14 -1 -22 6 -10 7
-13 8 -9 1 4 -8 -5 -13 -28 -16 -20 -2 -35 0 -35 7 0 5 -4 4 -9 -4 -6 -9 -11
-10 -15 -2 -4 6 -16 7 -29 3 -12 -4 -49 -7 -82 -7 -33 0 -63 -4 -67 -10 -5 -7
-8 -6 -8 1 0 12 -49 12 -68 0 -6 -3 -14 -1 -18 5 -4 8 -9 7 -15 -2 -6 -9 -9
-10 -9 -2 0 12 -17 12 -37 0 -6 -4 -15 -3 -18 3 -5 8 -11 8 -20 0 -10 -8 -15
-8 -20 0 -5 8 -11 8 -19 1 -7 -6 -16 -8 -19 -5 -3 4 -24 7 -46 8 -29 2 -37 -1
-31 -9 7 -8 3 -11 -13 -9 -12 1 -26 3 -30 3 -5 1 -5 5 -2 11 3 6 -1 7 -9 4 -9
-3 -13 -11 -9 -18 4 -6 -1 -5 -11 3 -19 16 -56 22 -56 10 0 -4 6 -10 13 -12 8
-4 9 -6 0 -6 -6 -1 -18 6 -26 14 -12 11 -17 12 -20 2 -4 -9 -8 -8 -16 3 -6 8
-11 10 -11 5 0 -6 -12 -10 -27 -9 -16 1 -28 3 -28 4 0 1 -10 3 -22 4 -12 1
-20 -1 -17 -6 8 -13 -10 -10 -25 5 -8 7 -11 7 -8 1 4 -7 -1 -14 -11 -16 -23
-6 -44 1 -36 14 4 5 -6 2 -22 -8 -21 -14 -26 -14 -17 -3 10 12 8 15 -7 15 -10
0 -16 -4 -14 -8 8 -13 -11 -9 -25 5 -11 10 -13 10 -7 0 4 -7 2 -13 -3 -13 -6
0 -11 6 -11 13 0 9 -3 8 -9 -2 -6 -10 -10 -10 -16 -1 -6 9 -10 9 -16 -1 -8
-12 -10 -12 -18 -1 -6 11 -10 10 -15 -3 -5 -13 -10 -15 -19 -6 -10 8 -19 6
-35 -5 -12 -8 -22 -12 -22 -7 0 4 -5 0 -11 -10 -6 -9 -15 -14 -21 -11 -7 5 -8
2 -3 -6 4 -7 2 -16 -6 -21 -15 -9 -23 -119 -8 -119 5 0 6 -6 3 -13 -2 -7 8
-24 22 -37 15 -14 24 -18 20 -10 -6 12 -5 12 6 -1 7 -9 19 -14 26 -11 7 2 20
-4 28 -14 9 -11 13 -13 9 -6 -7 13 7 17 19 5 12 -12 40 -12 48 0 6 9 8 8 8 -2
0 -11 4 -9 15 5 8 10 15 15 14 9 -3 -23 2 -27 18 -14 14 12 16 12 9 -1 -4 -9
-1 -8 7 3 17 21 28 22 21 3 -6 -15 11 -16 34 -3 7 5 12 3 12 -5 0 -9 3 -9 10
2 5 8 10 10 10 4 0 -7 11 -11 25 -10 14 0 23 6 21 12 -3 7 3 10 16 6 11 -3 15
-8 9 -11 -6 -4 12 -7 39 -7 28 0 44 4 37 8 -16 11 23 5 41 -5 12 -8 16 -2 13
18 -1 6 6 1 15 -10 11 -14 18 -16 21 -7 3 6 9 12 14 12 6 0 8 -4 5 -8 -7 -12
38 -9 46 3 5 6 8 4 8 -4 0 -11 4 -9 15 5 15 19 15 19 8 -1 -6 -18 -5 -18 10
-6 12 9 17 10 17 2 0 -7 5 -9 10 -6 6 4 8 10 5 15 -3 4 4 6 15 3 11 -3 17 -10
13 -17 -4 -6 1 -5 10 3 14 11 20 11 34 0 11 -10 14 -10 9 -1 -5 9 3 12 31 13
21 0 50 2 66 3 15 1 27 -3 27 -9 0 -6 3 -7 8 0 4 6 69 10 159 10 88 0 149 4
146 9 -4 5 0 5 8 0 20 -12 38 -14 45 -3 3 6 12 5 21 -3 18 -15 23 -15 34 3 6
10 11 10 22 0 10 -8 17 -9 22 -1 4 7 13 6 28 -2 19 -10 20 -9 10 3 -10 12 -8
15 7 15 10 0 17 -4 14 -7 -2 -4 0 -10 6 -14 5 -3 10 0 10 8 0 16 45 12 68 -6
9 -7 11 -6 7 5 -4 11 0 14 17 13 13 -1 29 3 37 9 11 8 13 8 8 0 -4 -8 8 -10
41 -8 26 1 49 3 52 4 3 1 10 1 15 0 33 -8 55 -7 55 3 0 8 3 7 9 -1 4 -8 12
-14 16 -14 4 0 12 6 16 14 7 11 9 11 9 -1 0 -11 3 -11 17 0 15 12 16 12 8 -1
-8 -13 -7 -13 8 -1 14 11 17 11 17 0 0 -8 5 -6 14 6 8 11 19 16 30 12 10 -4
19 -1 22 8 4 8 10 12 15 9 5 -3 9 0 9 6 0 6 5 8 10 5 6 -3 10 3 10 15 0 12 4
19 9 16 5 -3 12 1 15 10 4 10 2 13 -7 8 -9 -6 -9 -4 -1 7 14 17 15 67 2 75 -5
3 -4 12 3 20 9 11 8 14 -5 14 -10 0 -14 5 -11 10 3 6 -1 10 -10 10 -9 0 -14 4
-10 9 5 9 -22 23 -35 19 -3 -1 -15 4 -27 10 -16 9 -23 9 -26 -1 -4 -7 -6 -6
-6 4 -1 11 -9 16 -25 15 -17 -1 -21 -4 -15 -13z m-1401 -43 c0 -5 -5 -10 -11
-10 -5 0 -7 5 -4 10 3 6 8 10 11 10 2 0 4 -4 4 -10z m-390 -210 c0 -5 -2 -10
-4 -10 -3 0 -8 5 -11 10 -3 6 -1 10 4 10 6 0 11 -4 11 -10z"/>
<path d="M4295 2539 c6 -9 -1 -11 -28 -6 -20 3 -39 1 -42 -4 -4 -5 -13 -6 -24
0 -9 5 -23 6 -31 1 -7 -4 -23 -6 -34 -3 -12 2 -28 4 -36 4 -8 0 -27 -1 -43 -2
-18 0 -25 -4 -20 -12 5 -9 3 -9 -8 -1 -11 8 -72 12 -81 4 -7 -5 -58 -5 -58 0
0 8 -86 4 -99 -5 -6 -3 -11 -2 -11 3 0 5 -7 9 -15 9 -8 0 -15 -5 -15 -10 0 -5
-5 -5 -13 1 -8 7 -18 7 -27 2 -8 -5 -21 -5 -32 1 -10 5 -18 6 -18 1 0 -4 -9
-8 -20 -8 -11 0 -20 4 -20 9 0 5 -7 4 -15 -3 -8 -7 -15 -9 -15 -4 0 5 -11 9
-25 9 -14 0 -25 -2 -25 -5 0 -3 -9 -6 -20 -6 -11 0 -20 4 -20 8 0 5 -9 4 -20
-2 -14 -8 -20 -8 -20 0 0 8 -6 8 -20 0 -11 -6 -20 -7 -20 -2 0 4 -9 8 -20 8
-11 0 -20 -5 -20 -11 0 -6 -3 -7 -8 0 -4 6 -14 10 -22 10 -8 0 -18 -4 -22 -10
-5 -6 -8 -6 -8 1 0 14 -52 13 -62 -1 -5 -6 -8 -5 -8 4 0 11 -3 11 -15 1 -12
-10 -15 -10 -15 0 0 9 -3 10 -13 1 -8 -6 -17 -8 -21 -4 -11 11 -46 10 -46 -1
0 -7 -3 -7 -8 -1 -4 6 -14 10 -22 10 -8 0 -18 -4 -22 -10 -5 -7 -8 -6 -8 0 0
14 -40 14 -40 0 0 -5 -4 -4 -9 4 -8 12 -12 12 -24 3 -12 -10 -18 -9 -31 3 -9
9 -16 12 -16 6 0 -7 -11 -9 -25 -7 -15 3 -25 0 -25 -7 0 -8 -3 -9 -8 -1 -9 13
-45 27 -38 15 3 -5 -1 -12 -10 -15 -10 -4 -13 -2 -8 7 6 9 5 9 -8 0 -8 -7 -19
-9 -23 -5 -5 4 -5 1 -1 -5 7 -12 -6 -18 -29 -13 -5 1 -7 -2 -3 -6 4 -4 -3 -21
-15 -38 -12 -17 -21 -33 -20 -36 0 -3 -3 -4 -9 -2 -5 1 -6 -3 -2 -10 5 -7 10
-22 11 -33 2 -10 9 -23 16 -27 9 -6 8 -8 -3 -8 -12 -1 -11 -3 3 -11 9 -6 14
-15 11 -21 -4 -6 -3 -9 2 -6 9 6 36 -17 29 -24 -2 -2 10 -5 28 -6 17 -2 34 -7
37 -12 3 -5 27 -8 53 -7 26 1 47 -2 47 -8 0 -7 3 -7 8 0 8 11 52 15 52 5 0 -3
9 -6 20 -6 11 0 20 3 20 7 0 3 18 3 40 -1 22 -4 40 -4 40 0 0 3 23 4 50 0 28
-4 50 -2 50 2 0 5 5 6 11 2 18 -11 299 -10 299 0 0 6 7 1 16 -10 8 -10 13 -14
10 -7 -5 8 7 11 39 10 25 -1 45 2 45 6 0 4 9 3 20 -3 11 -6 20 -7 20 -2 0 4
27 5 60 2 33 -3 60 -3 60 0 0 7 255 4 268 -4 6 -3 12 0 15 6 3 10 8 9 22 -2
11 -9 16 -10 11 -2 -4 6 -3 12 1 12 5 0 15 -6 22 -12 11 -10 13 -10 7 0 -4 6
-4 12 1 13 4 0 16 2 25 4 10 2 21 -2 25 -7 4 -7 1 -8 -7 -3 -9 5 -11 4 -6 -4
6 -9 11 -9 22 0 8 6 14 8 14 4 0 -4 8 -1 17 6 9 8 14 9 10 3 -4 -8 9 -11 43
-11 42 1 47 3 37 17 -8 10 -5 9 9 -2 23 -20 39 -24 29 -8 -3 6 -1 10 4 10 6 0
11 -4 11 -10 0 -5 7 -7 15 -4 8 4 12 11 9 18 -3 6 1 3 9 -7 11 -14 16 -15 20
-5 4 10 6 10 6 1 1 -7 6 -13 12 -13 5 0 7 5 4 11 -5 7 5 9 30 5 27 -5 35 -3
30 6 -4 7 0 5 8 -5 14 -17 15 -17 22 0 5 12 9 14 12 5 3 -6 8 -10 12 -7 4 2
24 5 44 7 20 1 33 6 31 10 -3 4 4 8 14 8 11 0 26 8 33 18 12 15 12 16 -1 7 -9
-5 -6 -1 6 10 12 11 20 30 19 43 -1 12 2 22 7 22 4 0 8 5 8 11 0 5 -6 7 -12 4
-7 -4 -4 1 6 9 17 14 17 16 3 16 -11 0 -14 5 -11 15 4 9 -3 23 -15 34 -11 10
-21 24 -21 30 0 7 -4 9 -10 6 -5 -3 -10 -2 -10 4 0 5 -9 8 -21 6 -17 -3 -19
-1 -9 10 8 10 8 13 -2 11 -7 -1 -18 -5 -25 -9 -6 -4 -14 -3 -17 2 -7 11 -25 9
-45 -3 -8 -5 -16 -4 -21 5 -7 10 -11 10 -24 0 -13 -11 -16 -11 -16 0 0 11 -2
11 -10 -1 -8 -12 -10 -12 -10 -1 0 11 -3 11 -17 0 -15 -12 -16 -12 -8 1 7 12
6 13 -6 3 -9 -7 -20 -8 -29 -3 -7 4 -24 4 -36 0 -14 -6 -26 -5 -29 0 -3 5 -12
7 -20 4 -8 -4 -12 -11 -8 -18 4 -6 -6 -3 -21 8 -16 10 -25 12 -21 5z"/>
<path d="M4666 1728 c3 -5 10 -6 15 -3 13 9 11 12 -6 12 -8 0 -12 -4 -9 -9z"/>
</g>
</svg>
